<svg width="348" height="25" viewBox="0 0 348 25" fill="none" xmlns="http://www.w3.org/2000/svg">
<rect x="1.09646" y="0.389138" width="35.0197" height="24.1247" rx="4.28018" fill="white"/>
<rect x="1.09646" y="0.389138" width="35.0197" height="24.1247" rx="4.28018" stroke="#F2F4F7" stroke-width="0.778215"/>
<path fill-rule="evenodd" clip-rule="evenodd" d="M11.862 16.4549H9.72481L8.12215 10.1608C8.04608 9.87127 7.88457 9.61532 7.64698 9.49468C7.05406 9.19151 6.4007 8.95024 5.68794 8.82856V8.58623H9.13085C9.60602 8.58623 9.9624 8.95024 10.0218 9.37299L10.8533 13.9131L12.9895 8.58623H15.0674L11.862 16.4549ZM16.2553 16.4549H14.2369L15.8989 8.58623H17.9174L16.2553 16.4549ZM20.5287 10.7661C20.5881 10.3423 20.9445 10.1 21.3603 10.1C22.0136 10.0391 22.7253 10.1608 23.3193 10.4629L23.6757 8.76876C23.0817 8.52644 22.4284 8.40475 21.8354 8.40475C19.8764 8.40475 18.4509 9.49468 18.4509 11.0074C18.4509 12.1581 19.4606 12.7624 20.1734 13.1264C20.9445 13.4893 21.2415 13.7316 21.1821 14.0946C21.1821 14.639 20.5881 14.8814 19.9952 14.8814C19.2824 14.8814 18.5697 14.6999 17.9174 14.3967L17.561 16.0919C18.2737 16.394 19.0448 16.5157 19.7576 16.5157C21.9542 16.5755 23.3193 15.4866 23.3193 13.8523C23.3193 11.7941 20.5287 11.6735 20.5287 10.7661ZM30.3833 16.4549L28.7806 8.58623H27.0592C26.7028 8.58623 26.3464 8.82856 26.2276 9.19151L23.2599 16.4549H25.3377L25.7525 15.3052H28.3055L28.5431 16.4549H30.3833ZM27.3562 10.7052L27.9491 13.6708H26.287L27.3562 10.7052Z" fill="#172B85"/>
<rect x="52.8944" y="0.389138" width="35.0197" height="24.1247" rx="4.28018" fill="white"/>
<rect x="52.8944" y="0.389138" width="35.0197" height="24.1247" rx="4.28018" stroke="#F2F4F7" stroke-width="0.778215"/>
<path fill-rule="evenodd" clip-rule="evenodd" d="M70.3305 17.4626C69.1019 18.4982 67.5082 19.1233 65.7668 19.1233C61.881 19.1233 58.731 16.0108 58.731 12.1713C58.731 8.33176 61.881 5.21922 65.7668 5.21922C67.5082 5.21922 69.1019 5.84439 70.3305 6.87998C71.5591 5.84439 73.1528 5.21922 74.8943 5.21922C78.78 5.21922 81.93 8.33176 81.93 12.1713C81.93 16.0108 78.78 19.1233 74.8943 19.1233C73.1528 19.1233 71.5591 18.4982 70.3305 17.4626Z" fill="#ED0006"/>
<path fill-rule="evenodd" clip-rule="evenodd" d="M70.3305 17.4626C71.8433 16.1874 72.8025 14.2901 72.8025 12.1713C72.8025 10.0525 71.8433 8.15511 70.3305 6.87997C71.5591 5.84439 73.1528 5.21922 74.8942 5.21922C78.78 5.21922 81.93 8.33176 81.93 12.1713C81.93 16.0108 78.78 19.1233 74.8942 19.1233C73.1528 19.1233 71.5591 18.4982 70.3305 17.4626Z" fill="#F9A000"/>
<path fill-rule="evenodd" clip-rule="evenodd" d="M70.3305 17.4626C71.8433 16.1874 72.8025 14.29 72.8025 12.1713C72.8025 10.0525 71.8433 8.15514 70.3305 6.88C68.8178 8.15514 67.8585 10.0525 67.8585 12.1713C67.8585 14.29 68.8178 16.1874 70.3305 17.4626Z" fill="#FF5E00"/>
<rect x="104.692" y="0.389138" width="35.0197" height="24.1247" rx="2.72375" fill="white"/>
<rect x="104.692" y="0.389138" width="35.0197" height="24.1247" rx="2.72375" stroke="#F2F4F7" stroke-width="0.778215"/>
<path d="M123.961 24.2218L138.747 19.7471V21.8872C138.747 23.1766 137.701 24.2218 136.412 24.2218H123.961Z" fill="#FD6020"/>
<path fill-rule="evenodd" clip-rule="evenodd" d="M134.803 9.45361C135.887 9.45361 136.484 9.95535 136.484 10.9031C136.538 11.6278 136.05 12.241 135.399 12.3525L136.863 14.4152H135.725L134.477 12.4083H134.369V14.4152H133.447V9.45361H134.803ZM134.369 11.7393H134.64C135.236 11.7393 135.508 11.4606 135.508 10.9588C135.508 10.5129 135.236 10.2341 134.64 10.2341H134.369V11.7393ZM130.247 14.4152H132.85V13.579H131.169V12.241H132.796V11.4048H131.169V10.2898H132.85V9.45361H130.247V14.4152ZM127.536 12.7985L126.288 9.45361H125.312L127.319 14.5267H127.807L129.813 9.45361H128.837L127.536 12.7985ZM116.527 11.9623C116.527 13.356 117.611 14.5267 118.967 14.5267C119.401 14.5267 119.781 14.4152 120.16 14.248V13.133C119.889 13.4675 119.51 13.6905 119.076 13.6905C118.208 13.6905 117.503 13.0215 117.503 12.1295V12.018C117.449 11.1261 118.154 10.3456 119.021 10.2899C119.455 10.2899 119.889 10.5128 120.16 10.8473V9.73237C119.835 9.50938 119.401 9.45363 119.021 9.45363C117.611 9.34213 116.527 10.5128 116.527 11.9623ZM114.846 11.3491C114.303 11.1261 114.141 11.0146 114.141 10.7358C114.195 10.4013 114.466 10.1226 114.791 10.1784C115.063 10.1784 115.334 10.3456 115.551 10.5686L116.039 9.89961C115.659 9.56512 115.171 9.34213 114.683 9.34213C113.924 9.28638 113.273 9.89961 113.219 10.6801V10.7358C113.219 11.4048 113.49 11.795 114.358 12.0738C114.574 12.1295 114.791 12.241 115.008 12.3525C115.171 12.464 115.279 12.6313 115.279 12.8543C115.279 13.2445 114.954 13.579 114.629 13.579H114.574C114.141 13.579 113.761 13.3003 113.598 12.91L113.002 13.5232C113.327 14.1365 113.978 14.471 114.629 14.471C115.496 14.5267 116.201 13.8577 116.256 12.9658V12.7985C116.201 12.1295 115.93 11.795 114.846 11.3491ZM111.7 14.4152H112.622V9.45361H111.7V14.4152ZM107.416 9.45364H108.772H109.043C110.344 9.50939 111.375 10.6243 111.321 11.9623C111.321 12.687 110.995 13.356 110.453 13.8577C109.965 14.248 109.368 14.471 108.772 14.4152H107.416V9.45364ZM108.609 13.579C109.043 13.6347 109.531 13.4675 109.856 13.1887C110.182 12.8543 110.344 12.4083 110.344 11.9065C110.344 11.4606 110.182 11.0146 109.856 10.6801C109.531 10.4013 109.043 10.2341 108.609 10.2898H108.338V13.579H108.609Z" fill="black"/>
<path fill-rule="evenodd" clip-rule="evenodd" d="M122.926 9.33861C121.57 9.33861 120.431 10.4536 120.431 11.903C120.431 13.2967 121.516 14.4674 122.926 14.5232C124.336 14.5789 125.421 13.4082 125.475 11.9588C125.421 10.5093 124.336 9.33861 122.926 9.33861V9.33861Z" fill="#FD6020"/>
<rect x="156.49" y="0.389138" width="35.0197" height="24.1247" rx="2.72375" fill="#1F72CD"/>
<rect x="156.49" y="0.389138" width="35.0197" height="24.1247" rx="2.72375" stroke="#F2F4F7" stroke-width="0.778215"/>
<path fill-rule="evenodd" clip-rule="evenodd" d="M162.426 8.81979L159.125 16.3392H163.076L163.566 15.1403H164.686L165.176 16.3392H169.525V15.4241L169.913 16.3392H172.163L172.55 15.4048V16.3392H181.596L182.696 15.1714L183.726 16.3392L188.372 16.3488L185.061 12.6005L188.372 8.81979H183.798L182.727 9.96598L181.73 8.81979H171.889L171.044 10.7606L170.179 8.81979H166.236V9.7037L165.798 8.81979H162.426ZM163.19 9.88757H165.117L167.306 14.9865V9.88757H169.416L171.107 13.5435L172.666 9.88757H174.765V15.2832H173.487L173.477 11.0552L171.615 15.2832H170.472L168.599 11.0552V15.2832H165.971L165.473 14.0736H162.781L162.284 15.2821H160.876L163.19 9.88757ZM181.128 9.88757H175.934V15.28H181.048L182.696 13.4929L184.285 15.28H185.946L183.532 12.5994L185.946 9.88757H184.357L182.717 11.6542L181.128 9.88757ZM164.127 10.8005L163.241 12.9553H165.013L164.127 10.8005ZM177.217 11.9897V11.0047V11.0038H180.458L181.872 12.579L180.395 14.1628H177.217V13.0875H180.05V11.9897H177.217Z" fill="white"/>
<rect x="208.288" y="0.389138" width="35.0197" height="24.1247" rx="2.72375" fill="white"/>
<rect x="208.288" y="0.389138" width="35.0197" height="24.1247" rx="2.72375" stroke="#F2F4F7" stroke-width="0.778215"/>
<path d="M230.708 12.404C231.259 12.416 231.813 12.3797 232.362 12.4229C232.918 12.5266 233.052 13.3684 232.558 13.6441C232.221 13.8257 231.821 13.7117 231.456 13.7438H230.708V12.404ZM232.681 10.8877C232.804 11.32 232.387 11.7081 231.971 11.6486H230.708C230.717 11.2409 230.69 10.7984 230.721 10.4122C231.226 10.4265 231.737 10.3832 232.24 10.4349C232.456 10.4892 232.637 10.6668 232.681 10.8877ZM235.72 4.47688C235.744 5.30245 235.724 6.17166 235.73 7.01398C235.729 10.4385 235.734 13.863 235.728 17.2878C235.706 18.5712 234.568 19.6864 233.294 19.712C232.018 19.7172 230.742 19.7128 229.466 19.7142V14.537C230.856 14.5298 232.247 14.5516 233.637 14.5262C234.281 14.4857 234.987 14.0603 235.017 13.3509C235.093 12.6384 234.422 12.1456 233.784 12.0677C233.539 12.0614 233.546 11.9963 233.784 11.9679C234.392 11.8364 234.87 11.2068 234.691 10.5763C234.538 9.91318 233.805 9.65651 233.196 9.65778C231.953 9.64934 230.709 9.6566 229.466 9.65415C229.474 8.68763 229.449 7.72006 229.479 6.75425C229.578 5.49398 230.744 4.45466 232.001 4.47721C233.241 4.47702 234.481 4.47702 235.72 4.47698V4.47688Z" fill="url(#paint0_linear_1_1662)"/>
<path d="M215.418 6.88476C215.45 5.60336 216.592 4.4973 217.865 4.47857C219.136 4.47466 220.407 4.47801 221.678 4.47687C221.675 8.76418 221.685 13.052 221.673 17.339C221.624 18.6049 220.494 19.6898 219.235 19.7122C217.962 19.7169 216.688 19.7129 215.415 19.7142V14.3624C216.652 14.6547 217.949 14.779 219.211 14.5852C219.965 14.4638 220.791 14.0934 221.046 13.3108C221.234 12.6414 221.128 11.9368 221.156 11.2498V9.65414H218.972C218.962 10.7094 218.992 11.7666 218.956 12.8206C218.897 13.4685 218.256 13.8801 217.645 13.8581C216.887 13.8662 215.385 13.309 215.385 13.309C215.382 11.3317 215.407 8.8556 215.418 6.88495V6.88476Z" fill="url(#paint1_linear_1_1662)"/>
<path d="M222.493 10.2978C222.378 10.3222 222.47 9.9062 222.44 9.7484C222.448 8.7507 222.424 7.75191 222.454 6.75491C222.552 5.48931 223.727 4.4474 224.989 4.47703H228.704C228.701 8.76433 228.711 13.0521 228.699 17.3392C228.65 18.605 227.52 19.6899 226.261 19.7124C224.988 19.7172 223.714 19.7131 222.44 19.7144V13.8508C223.31 14.5645 224.492 14.6756 225.576 14.6775C226.393 14.6772 227.205 14.5513 227.998 14.3629V13.2886C227.104 13.7342 226.053 14.0173 225.062 13.7613C224.371 13.5892 223.869 12.921 223.88 12.2075C223.8 11.4655 224.235 10.6822 224.964 10.4616C225.869 10.1782 226.856 10.395 227.705 10.7634C227.887 10.8586 228.071 10.9767 227.998 10.6728V9.82846C226.579 9.49079 225.069 9.36654 223.643 9.73387C223.23 9.8503 222.828 10.0269 222.493 10.2979V10.2978Z" fill="url(#paint2_linear_1_1662)"/>
<rect x="260.086" y="0.389138" width="35.0197" height="24.1247" rx="2.72375" fill="white"/>
<rect x="260.086" y="0.389138" width="35.0197" height="24.1247" rx="2.72375" stroke="#F2F4F7" stroke-width="0.778215"/>
<path fill-rule="evenodd" clip-rule="evenodd" d="M276.131 20.0261H278.825C283.03 20.0261 286.381 16.6901 286.512 12.5692V12.5038C286.446 8.31749 283.03 4.91611 278.825 4.98152H275.803C271.795 5.11234 268.641 8.51372 268.773 12.5692C268.773 16.6247 272.058 19.9607 276.131 20.0261ZM270.087 12.5038C270.087 9.10239 272.912 6.28971 276.328 6.28971C279.745 6.28971 282.57 9.10239 282.57 12.5038C282.57 15.9051 279.745 18.7178 276.328 18.7178C272.912 18.7178 270.087 15.9051 270.087 12.5038ZM277.314 16.6901V8.38287C279.613 8.97157 281.059 11.261 280.467 13.5504C280.073 15.1202 278.891 16.2976 277.314 16.6901ZM272.255 11.4572C271.663 13.7466 273.043 16.1014 275.343 16.6901V8.38287C273.832 8.77534 272.649 9.95274 272.255 11.4572Z" fill="#0079BE"/>
<rect x="311.884" y="0.389138" width="35.0197" height="24.1247" rx="2.72375" fill="white"/>
<rect x="311.884" y="0.389138" width="35.0197" height="24.1247" rx="2.72375" stroke="#F2F4F7" stroke-width="0.778215"/>
<path d="M322.409 5.1889H327.969C328.745 5.1889 329.227 5.84009 329.046 6.64166L326.458 18.0818C326.275 18.8806 325.498 19.5323 324.722 19.5323H319.162C318.387 19.5323 317.904 18.8806 318.085 18.0818L320.674 6.64166C320.855 5.84009 321.632 5.1889 322.409 5.1889Z" fill="#E21836"/>
<path d="M327.506 5.18814H333.899C334.675 5.18814 334.325 5.83933 334.143 6.6409L331.555 18.081C331.373 18.8798 331.43 19.5316 330.652 19.5316H324.259C323.481 19.5316 323 18.8798 323.182 18.081L325.77 6.6409C325.954 5.83933 326.729 5.18814 327.506 5.18814Z" fill="#00447C"/>
<path d="M333.646 5.18814H339.206C339.983 5.18814 340.465 5.83933 340.283 6.6409L337.695 18.081C337.512 18.8798 336.735 19.5316 335.957 19.5316H330.4C329.623 19.5316 329.14 18.8798 329.323 18.081L331.911 6.6409C332.092 5.83933 332.868 5.18814 333.646 5.18814Z" fill="#007B84"/>
<path d="M323.861 8.85435C323.289 8.86035 323.12 8.85435 323.066 8.84124C323.045 8.94266 322.66 10.7747 322.658 10.7762C322.575 11.1469 322.515 11.4111 322.31 11.5817C322.193 11.6809 322.057 11.7288 321.899 11.7288C321.646 11.7288 321.498 11.5992 321.473 11.3534L321.468 11.269C321.468 11.269 321.546 10.7725 321.546 10.7697C321.546 10.7697 321.951 9.10015 322.023 8.87946C322.027 8.86691 322.028 8.86035 322.029 8.85435C321.241 8.86147 321.101 8.85435 321.091 8.84124C321.086 8.85923 321.067 8.96274 321.067 8.96274L320.653 10.8445L320.618 11.0041L320.549 11.5261C320.549 11.6809 320.579 11.8073 320.637 11.9142C320.826 12.253 321.363 12.3038 321.667 12.3038C322.059 12.3038 322.426 12.2181 322.674 12.0617C323.105 11.7996 323.218 11.3899 323.319 11.0258L323.365 10.839C323.365 10.839 323.782 9.10503 323.853 8.87946C323.856 8.86691 323.857 8.86035 323.861 8.85435ZM325.28 10.2532C325.179 10.2532 324.995 10.2783 324.83 10.3616C324.771 10.3932 324.714 10.4298 324.654 10.4662L324.708 10.2657L324.679 10.232C324.328 10.3049 324.25 10.3147 323.927 10.3616L323.9 10.3801C323.862 10.7006 323.829 10.9415 323.69 11.5713C323.637 11.8034 323.582 12.0378 323.526 12.2694L323.541 12.2988C323.873 12.2808 323.973 12.2808 324.261 12.2857L324.285 12.2596C324.321 12.0667 324.326 12.0215 324.407 11.6307C324.445 11.4455 324.524 11.0384 324.564 10.8935C324.636 10.8592 324.707 10.8254 324.774 10.8254C324.936 10.8254 324.916 10.9703 324.91 11.0281C324.903 11.1251 324.844 11.4417 324.784 11.7136L324.744 11.8891C324.716 12.0187 324.685 12.1447 324.657 12.2731L324.669 12.2988C324.995 12.2808 325.095 12.2808 325.374 12.2857L325.407 12.2596C325.457 11.9583 325.472 11.8777 325.561 11.4389L325.606 11.2374C325.694 10.8428 325.738 10.6428 325.672 10.4799C325.602 10.2973 325.434 10.2532 325.28 10.2532ZM326.865 10.6662C326.692 10.7005 326.581 10.7234 326.471 10.7382C326.362 10.7562 326.255 10.7725 326.088 10.7965L326.074 10.8089L326.062 10.8188C326.045 10.9475 326.032 11.0586 326.009 11.1894C325.99 11.3245 325.959 11.4781 325.91 11.6988C325.872 11.8677 325.852 11.9266 325.831 11.986C325.81 12.0455 325.786 12.1032 325.744 12.2694L325.754 12.2847L325.762 12.2988C325.919 12.2911 326.021 12.2857 326.127 12.2847C326.232 12.2808 326.341 12.2847 326.51 12.2857L326.525 12.2733L326.541 12.2596C326.565 12.1098 326.569 12.0695 326.584 11.9964C326.598 11.918 326.624 11.8094 326.686 11.5195C326.716 11.3834 326.749 11.2477 326.779 11.1087C326.811 10.9703 326.845 10.834 326.876 10.6979L326.872 10.6814L326.865 10.6662ZM326.869 10.1093C326.711 10.0135 326.434 10.0439 326.248 10.1763C326.062 10.306 326.041 10.4901 326.198 10.5872C326.353 10.6804 326.631 10.6527 326.816 10.5192C327.001 10.3866 327.024 10.2042 326.869 10.1093ZM327.823 12.3288C328.142 12.3288 328.469 12.2383 328.715 11.9696C328.905 11.7517 328.992 11.4275 329.022 11.294C329.12 10.8515 329.043 10.6449 328.948 10.5191C328.802 10.3273 328.545 10.2658 328.278 10.2658C328.118 10.2658 327.735 10.2821 327.437 10.5654C327.223 10.7698 327.123 11.0471 327.064 11.313C327.003 11.5839 326.934 12.0716 327.37 12.2531C327.504 12.3125 327.698 12.3288 327.823 12.3288ZM327.798 11.3332C327.872 10.9981 327.958 10.7169 328.18 10.7169C328.354 10.7169 328.366 10.9262 328.289 11.2624C328.275 11.337 328.212 11.6144 328.126 11.7326C328.066 11.8198 327.995 11.8727 327.917 11.8727C327.894 11.8727 327.755 11.8727 327.753 11.6608C327.752 11.5561 327.773 11.4493 327.798 11.3332ZM329.82 12.2857L329.844 12.2597C329.88 12.0667 329.886 12.0214 329.964 11.6308C330.003 11.4455 330.084 11.0385 330.122 10.8935C330.194 10.8591 330.264 10.8253 330.334 10.8253C330.494 10.8253 330.475 10.9703 330.469 11.028C330.463 11.1251 330.404 11.4416 330.342 11.7135L330.304 11.889C330.275 12.0187 330.244 12.1446 330.215 12.2732L330.228 12.2989C330.555 12.2809 330.651 12.2809 330.932 12.2857L330.966 12.2597C331.015 11.9582 331.028 11.8776 331.12 11.439L331.164 11.2373C331.252 10.8427 331.296 10.6428 331.231 10.4799C331.159 10.2973 330.991 10.2532 330.839 10.2532C330.738 10.2532 330.553 10.2782 330.389 10.3616C330.33 10.3933 330.272 10.4297 330.214 10.4662L330.264 10.2658L330.237 10.2319C329.887 10.305 329.807 10.3147 329.484 10.3616L329.46 10.3802C329.42 10.7006 329.389 10.9414 329.249 11.5714C329.196 11.8035 329.141 12.0378 329.086 12.2694L329.101 12.2989C329.433 12.2809 329.532 12.2809 329.82 12.2857ZM332.227 12.2988C332.248 12.1953 332.37 11.5818 332.371 11.5818C332.371 11.5818 332.475 11.1316 332.482 11.1153C332.482 11.1153 332.514 11.0684 332.547 11.0498H332.595C333.051 11.0498 333.565 11.0498 333.968 10.7447C334.242 10.5355 334.429 10.2265 334.513 9.85097C334.534 9.7589 334.55 9.64939 334.55 9.53988C334.55 9.39606 334.522 9.25377 334.441 9.14259C334.236 8.84671 333.827 8.84127 333.354 8.83903C333.353 8.83903 333.122 8.84127 333.122 8.84127C332.517 8.84894 332.275 8.84671 332.175 8.83415C332.167 8.87949 332.151 8.96012 332.151 8.96012C332.151 8.96012 331.934 9.99326 331.934 9.99493C331.934 9.99493 331.416 12.1915 331.392 12.295C331.92 12.2885 332.136 12.2885 332.227 12.2988ZM332.628 10.4635C332.628 10.4635 332.859 9.43247 332.857 9.43637L332.865 9.3835L332.868 9.34319L332.96 9.35295C332.96 9.35295 333.435 9.39494 333.446 9.39606C333.634 9.47069 333.711 9.66306 333.657 9.91416C333.608 10.1436 333.463 10.3366 333.277 10.4298C333.124 10.5087 332.937 10.5153 332.744 10.5153H332.619L332.628 10.4635ZM334.062 11.3523C334.001 11.6193 333.931 12.107 334.365 12.2808C334.503 12.3414 334.627 12.3594 334.753 12.3528C334.885 12.3454 335.009 12.2768 335.123 12.178C335.112 12.2186 335.102 12.2592 335.092 12.2999L335.111 12.326C335.423 12.3125 335.52 12.3125 335.858 12.3151L335.889 12.2912C335.938 11.9926 335.984 11.7027 336.113 11.1316C336.175 10.8581 336.237 10.5872 336.301 10.3147L336.291 10.2847C335.943 10.3513 335.849 10.3655 335.514 10.4145L335.488 10.4358C335.485 10.4636 335.481 10.4902 335.478 10.5168C335.426 10.4301 335.35 10.356 335.234 10.3098C335.085 10.2494 334.734 10.3273 334.433 10.6096C334.221 10.8112 334.12 11.0874 334.062 11.3523ZM334.794 11.3686C334.869 11.0396 334.955 10.7611 335.177 10.7611C335.318 10.7611 335.392 10.8946 335.377 11.1223C335.365 11.1791 335.352 11.2389 335.336 11.3066C335.314 11.4043 335.29 11.5013 335.267 11.5984C335.243 11.6648 335.215 11.7274 335.185 11.7691C335.127 11.8526 334.991 11.9043 334.913 11.9043C334.891 11.9043 334.754 11.9043 334.749 11.6962C334.748 11.5925 334.769 11.4858 334.794 11.3686ZM338.62 10.2821L338.593 10.2504C338.248 10.3224 338.185 10.3338 337.868 10.3779L337.845 10.4019C337.844 10.4058 337.843 10.4118 337.841 10.4172L337.84 10.4118C337.604 10.9724 337.611 10.8515 337.419 11.2929C337.418 11.2728 337.418 11.2602 337.417 11.2389L337.369 10.2821L337.338 10.2504C336.977 10.3224 336.968 10.3338 336.634 10.3779L336.608 10.4019C336.605 10.4133 336.605 10.4259 336.603 10.4396L336.605 10.4444C336.647 10.664 336.637 10.615 336.678 10.9616C336.698 11.1316 336.724 11.3026 336.743 11.4706C336.776 11.7517 336.795 11.8901 336.835 12.319C336.61 12.7021 336.556 12.847 336.339 13.1832L336.341 13.1866L336.188 13.4355C336.17 13.4617 336.154 13.4797 336.132 13.4874C336.108 13.4998 336.076 13.502 336.032 13.502H335.947L335.821 13.9331L336.253 13.9407C336.507 13.9396 336.666 13.8176 336.752 13.6535L337.024 13.1745H337.019L337.048 13.1407C337.23 12.7359 338.62 10.2821 338.62 10.2821ZM334.062 15.9433H333.879L334.557 13.6345H334.782L334.853 13.3966L334.86 13.6611C334.852 13.8246 334.977 13.9695 335.305 13.9455H335.684L335.815 13.501H335.672C335.59 13.501 335.552 13.4796 335.557 13.4339L335.55 13.1648H334.847V13.1662C334.62 13.171 333.941 13.1886 333.803 13.2263C333.637 13.2704 333.462 13.4001 333.462 13.4001L333.531 13.162H332.873L332.736 13.6345L332.049 15.9786H331.916L331.785 16.42H333.095L333.051 16.5672H333.696L333.739 16.42H333.92L334.062 15.9433ZM333.524 14.1036C333.419 14.1336 333.223 14.2245 333.223 14.2245L333.397 13.6345H333.92L333.794 14.0644C333.794 14.0644 333.632 14.0742 333.524 14.1036ZM333.534 14.9466C333.534 14.9466 333.37 14.9678 333.262 14.9929C333.156 15.0261 332.957 15.1307 332.957 15.1307L333.136 14.5167H333.662L333.534 14.9466ZM333.242 15.9488H332.718L332.87 15.4305H333.392L333.242 15.9488ZM334.504 14.5167H335.259L335.151 14.8785H334.385L334.27 15.2741H334.94L334.433 16.0092C334.397 16.0632 334.366 16.0823 334.33 16.0975C334.295 16.116 334.248 16.1378 334.194 16.1378H334.008L333.881 16.5711H334.367C334.619 16.5711 334.768 16.4528 334.879 16.2975L335.226 15.8076L335.301 16.3051C335.317 16.3982 335.382 16.4528 335.426 16.474C335.475 16.4991 335.525 16.5422 335.596 16.5486C335.672 16.552 335.727 16.5546 335.764 16.5546H336.002L336.146 16.0697H336.052C335.998 16.0697 335.904 16.0604 335.889 16.0429C335.873 16.0217 335.873 15.9891 335.864 15.9394L335.788 15.4408H335.478L335.614 15.2741H336.378L336.496 14.8785H335.788L335.899 14.5167H336.604L336.734 14.0704H334.632L334.504 14.5167ZM328.124 16.0495L328.3 15.4458H329.025L329.157 14.9967H328.432L328.543 14.6251H329.251L329.383 14.1903H327.609L327.481 14.6251H327.884L327.776 14.9967H327.372L327.238 15.4534H327.641L327.406 16.2522C327.374 16.358 327.421 16.3983 327.451 16.4474C327.481 16.4952 327.511 16.5269 327.58 16.5449C327.651 16.5612 327.7 16.571 327.766 16.571H328.583L328.729 16.0735L328.366 16.1247C328.297 16.1247 328.103 16.1161 328.124 16.0495ZM328.207 13.1592L328.023 13.5009C327.984 13.5755 327.949 13.6218 327.917 13.6432C327.889 13.6612 327.833 13.6687 327.753 13.6687H327.657L327.529 14.1058H327.847C328 14.1058 328.118 14.048 328.174 14.0191C328.234 13.9859 328.25 14.0049 328.297 13.9586L328.404 13.8627H329.398L329.529 13.4077H328.802L328.929 13.1592H328.207ZM329.674 16.0583C329.657 16.0332 329.669 15.989 329.695 15.8969L329.967 14.9716H330.933C331.074 14.9695 331.175 14.9678 331.241 14.9629C331.312 14.9553 331.39 14.9292 331.474 14.8823C331.561 14.8332 331.605 14.7815 331.643 14.722C331.684 14.6627 331.752 14.533 331.809 14.333L332.151 13.162L331.148 13.168C331.148 13.168 330.84 13.2149 330.704 13.2666C330.566 13.3244 330.371 13.4856 330.371 13.4856L330.461 13.1646H329.842L328.975 16.1247C328.944 16.2397 328.923 16.3231 328.919 16.3732C328.917 16.4271 328.985 16.4806 329.029 16.5209C329.081 16.5612 329.157 16.5546 329.231 16.5612C329.308 16.5672 329.418 16.571 329.57 16.571H330.046L330.192 16.0632L329.766 16.1046C329.721 16.1046 329.688 16.0795 329.674 16.0583ZM330.142 14.3466H331.157L331.092 14.5548C331.083 14.5597 331.061 14.5444 330.958 14.557H330.079L330.142 14.3466ZM330.345 13.6486H331.368L331.295 13.8993C331.295 13.8993 330.813 13.8944 330.735 13.909C330.395 13.9696 330.197 14.1565 330.197 14.1565L330.345 13.6486ZM331.115 15.2518C331.106 15.2829 331.093 15.3018 331.075 15.3161C331.054 15.3297 331.021 15.3346 330.971 15.3346H330.826L330.835 15.0811H330.233L330.209 16.3203C330.208 16.4097 330.217 16.4615 330.28 16.5029C330.344 16.5547 330.539 16.5612 330.803 16.5612H331.18L331.316 16.0974L330.988 16.116L330.879 16.1225C330.864 16.116 330.85 16.11 330.834 16.0936C330.82 16.0795 330.797 16.0882 330.8 15.9988L330.803 15.6811L331.147 15.6665C331.333 15.6665 331.412 15.6043 331.48 15.545C331.545 15.4882 331.566 15.4229 331.59 15.3346L331.648 15.0534H331.175L331.115 15.2518Z" fill="#FEFEFE"/>
<defs>
<linearGradient id="paint0_linear_1_1662" x1="229.423" y1="11.7698" x2="235.691" y2="11.7698" gradientUnits="userSpaceOnUse">
<stop stop-color="#58B03A"/>
<stop offset="1" stop-color="#55B330"/>
</linearGradient>
<linearGradient id="paint1_linear_1_1662" x1="215.281" y1="12.2414" x2="221.576" y2="12.2414" gradientUnits="userSpaceOnUse">
<stop stop-color="#0F6EB6"/>
<stop offset="1" stop-color="#006DBA"/>
</linearGradient>
<linearGradient id="paint2_linear_1_1662" x1="222.431" y1="11.9175" x2="228.703" y2="11.9175" gradientUnits="userSpaceOnUse">
<stop stop-color="#DE0D3D"/>
<stop offset="1" stop-color="#E30138"/>
</linearGradient>
</defs>
</svg>
